{
  "accessors": [
    {
      "bufferView": 2,
      "componentType": 5126,
      "count": 27065,
      "max": [
        22.735599517822266,
        133.18350219726563,
        16.416000366210938
      ],
      "min": [
        -15.831000328063965,
        -823.7457275390625,
        9.763199806213379
      ],
      "type": "VEC3"
    },
    {
      "bufferView": 2,
      "byteOffset": 324780,
      "componentType": 5126,
      "count": 27065,
      "max": [
        1.0,
        1.0,
        1.0
      ],
      "min": [
        -1.0,
        -0.9898372888565063,
        -1.0
      ],
      "type": "VEC3"
    },
    {
      "bufferView": 1,
      "componentType": 5126,
      "count": 27065,
      "max": [
        2.424299955368042,
        2.4412999153137207
      ],
      "min": [
        -1.424299955368042,
        -1.2711000442504883
      ],
      "type": "VEC2"
    },
    {
      "bufferView": 0,
      "componentType": 5125,
      "count": 156960,
      "type": "SCALAR"
    },
    {
      "bufferView": 2,
      "byteOffset": 649560,
      "componentType": 5126,
      "count": 25962,
      "max": [
        21.060300827026367,
        302.0621032714844,
        26.031200408935547
      ],
      "min": [
        -14.155699729919434,
        134.2158966064453,
        0.14810000360012054
      ],
      "type": "VEC3"
    },
    {
      "bufferView": 2,
      "byteOffset": 961104,
      "componentType": 5126,
      "count": 25962,
      "max": [
        1.0,
        1.0,
        1.0
      ],
      "min": [
        -1.0,
        -1.0,
        -1.0
      ],
      "type": "VEC3"
    },
    {
      "bufferView": 3,
      "componentType": 5126,
      "count": 25962,
      "max": [
        1.0,
        1.0,
        0.7756314277648926,
        1.0
      ],
      "min": [
        -1.0,
        -1.0,
        -0.7342595458030701,
        1.0
      ],
      "type": "VEC4"
    },
    {
      "bufferView": 1,
      "byteOffset": 216520,
      "componentType": 5126,
      "count": 25962,
      "max": [
        2.6166999340057373,
        0.8845999836921692
      ],
      "min": [
        -1.6167000532150269,
        0.11540000140666962
      ],
      "type": "VEC2"
    },
    {
      "bufferView": 0,
      "byteOffset": 627840,
      "componentType": 5125,
      "count": 140544,
      "type": "SCALAR"
    },
    {
      "bufferView": 2,
      "byteOffset": 1272648,
      "componentType": 5126,
      "count": 24,
      "max": [
        3.539900064468384,
        134.2052001953125,
        17.48189926147461
      ],
      "min": [
        3.452199935913086,
        134.2052001953125,
        8.69729995727539
      ],
      "type": "VEC3"
    },
    {
      "bufferView": 2,
      "byteOffset": 1272936,
      "componentType": 5126,
      "count": 24,
      "max": [
        0.0,
        1.0,
        -0.0
      ],
      "min": [
        0.0,
        -1.0,
        -0.0
      ],
      "type": "VEC3"
    },
    {
      "bufferView": 1,
      "byteOffset": 424216,
      "componentType": 5126,
      "count": 24,
      "max": [
        0.7092000246047974,
        0.5318999886512756
      ],
      "min": [
        0.290800005197525,
        0.46810001134872437
      ],
      "type": "VEC2"
    },
    {
      "bufferView": 0,
      "byteOffset": 1190016,
      "componentType": 5125,
      "count": 24,
      "type": "SCALAR"
    },
    {
      "bufferView": 2,
      "byteOffset": 1273224,
      "componentType": 5126,
      "count": 25962,
      "max": [
        104.16120147705078,
        136.29159545898438,
        23.100799560546875
      ],
      "min": [
        -97.25669860839844,
        102.53620147705078,
        3.078399896621704
      ],
      "type": "VEC3"
    },
    {
      "bufferView": 2,
      "byteOffset": 1584768,
      "componentType": 5126,
      "count": 25962,
      "max": [
        1.0,
        1.0,
        1.0
      ],
      "min": [
        -1.0,
        -1.0,
        -1.0
      ],
      "type": "VEC3"
    },
    {
      "bufferView": 1,
      "byteOffset": 424408,
      "componentType": 5126,
      "count": 25962,
      "max": [
        1.3898999691009521,
        1.3229000568389893
      ],
      "min": [
        -0.38989999890327454,
        0.4278999865055084
      ],
      "type": "VEC2"
    },
    {
      "bufferView": 0,
      "byteOffset": 1190112,
      "componentType": 5125,
      "count": 138096,
      "type": "SCALAR"
    },
    {
      "bufferView": 2,
      "byteOffset": 1896312,
      "componentType": 5126,
      "count": 7972,
      "max": [
        34.27830123901367,
        370.95318603515625,
        19.98110008239746
      ],
      "min": [
        -27.37380027770996,
        300.1477966308594,
        6.1981000900268555
      ],
      "type": "VEC3"
    },
    {
      "bufferView": 2,
      "byteOffset": 1991976,
      "componentType": 5126,
      "count": 7972,
      "max": [
        1.0,
        1.0,
        1.0
      ],
      "min": [
        -1.0,
        -1.0,
        -1.0
      ],
      "type": "VEC3"
    },
    {
      "bufferView": 1,
      "byteOffset": 632104,
      "componentType": 5126,
      "count": 7972,
      "max": [
        1.4723999500274658,
        0.5468999743461609
      ],
      "min": [
        -0.4724000096321106,
        -0.47189998626708984
      ],
      "type": "VEC2"
    },
    {
      "bufferView": 0,
      "byteOffset": 1742496,
      "componentType": 5125,
      "count": 42240,
      "type": "SCALAR"
    }
  ],
  "asset": {
    "extras": {
      "author": "leeeck (https://sketchfab.com/leeeck)",
      "license": "CC-BY-4.0 (http://creativecommons.org/licenses/by/4.0/)",
      "source": "https://sketchfab.com/3d-models/medieval-irish-longsword-455ef3ab83d547b0995872bca01b1837",
      "title": "Medieval Irish Longsword"
    },
    "generator": "Sketchfab-13.35.0",
    "version": "2.0"
  },
  "bufferViews": [
    {
      "buffer": 0,
      "byteLength": 1911456,
      "name": "floatBufferViews",
      "target": 34963
    },
    {
      "buffer": 0,
      "byteLength": 695880,
      "byteOffset": 1911456,
      "byteStride": 8,
      "name": "floatBufferViews",
      "target": 34962
    },
    {
      "buffer": 0,
      "byteLength": 2087640,
      "byteOffset": 2607336,
      "byteStride": 12,
      "name": "floatBufferViews",
      "target": 34962
    },
    {
      "buffer": 0,
      "byteLength": 415392,
      "byteOffset": 4694976,
      "byteStride": 16,
      "name": "floatBufferViews",
      "target": 34962
    }
  ],
  "buffers": [
    {
      "byteLength": 5110368,
      "uri": "scene.bin"
    }
  ],
  "images": [
    {
      "uri": "textures/blade_baseColor.jpeg"
    },
    {
      "uri": "textures/blade_metallicRoughness.png"
    },
    {
      "uri": "textures/leather_metallicRoughness.png"
    },
    {
      "uri": "textures/leather_normal.png"
    }
  ],
  "materials": [
    {
      "doubleSided": true,
      "name": "blade",
      "pbrMetallicRoughness": {
        "baseColorTexture": {
          "index": 0
        },
        "metallicRoughnessTexture": {
          "index": 1
        },
        "roughnessFactor": 0.6323828796430617
      }
    },
    {
      "doubleSided": true,
      "name": "leather",
      "normalTexture": {
        "index": 3,
        "scale": 0.3702868427789494
      },
      "pbrMetallicRoughness": {
        "baseColorFactor": [
          0.004658768554030532,
          0.002038939362382822,
          0.02022158405729963,
          1.0
        ],
        "metallicFactor": 0.0,
        "metallicRoughnessTexture": {
          "index": 2
        },
        "roughnessFactor": 0.6628591629993539
      }
    },
    {
      "doubleSided": true,
      "name": "metal_shiny",
      "pbrMetallicRoughness": {
        "baseColorTexture": {
          "index": 0
        },
        "metallicRoughnessTexture": {
          "index": 1
        },
        "roughnessFactor": 0.821335836452073
      }
    }
  ],
  "meshes": [
    {
      "name": "Object_0",
      "primitives": [
        {
          "attributes": {
            "NORMAL": 1,
            "POSITION": 0,
            "TEXCOORD_0": 2
          },
          "indices": 3,
          "material": 0,
          "mode": 4
        }
      ]
    },
    {
      "name": "Object_1",
      "primitives": [
        {
          "attributes": {
            "NORMAL": 5,
            "POSITION": 4,
            "TANGENT": 6,
            "TEXCOORD_0": 7
          },
          "indices": 8,
          "material": 1,
          "mode": 4
        }
      ]
    },
    {
      "name": "Object_2",
      "primitives": [
        {
          "attributes": {
            "NORMAL": 10,
            "POSITION": 9,
            "TEXCOORD_0": 11
          },
          "indices": 12,
          "material": 2,
          "mode": 4
        }
      ]
    },
    {
      "name": "Object_3",
      "primitives": [
        {
          "attributes": {
            "NORMAL": 14,
            "POSITION": 13,
            "TEXCOORD_0": 15
          },
          "indices": 16,
          "material": 2,
          "mode": 4
        }
      ]
    },
    {
      "name": "Object_4",
      "primitives": [
        {
          "attributes": {
            "NORMAL": 18,
            "POSITION": 17,
            "TEXCOORD_0": 19
          },
          "indices": 20,
          "material": 2,
          "mode": 4
        }
      ]
    }
  ],
  "nodes": [
    {
      "children": [
        1
      ],
      "matrix": [
        1.0,
        0.0,
        0.0,
        0.0,
        0.0,
        2.220446049250313e-16,
        -1.0,
        0.0,
        0.0,
        1.0,
        2.220446049250313e-16,
        0.0,
        0.0,
        0.0,
        0.0,
        1.0
      ],
      "name": "Sketchfab_model"
    },
    {
      "children": [
        2,
        3,
        4,
        5,
        6
      ],
      "name": "highland_longsword.obj.cleaner.materialmerger.gles"
    },
    {
      "mesh": 0,
      "name": "Object_2"
    },
    {
      "mesh": 1,
      "name": "Object_3"
    },
    {
      "mesh": 2,
      "name": "Object_4"
    },
    {
      "mesh": 3,
      "name": "Object_5"
    },
    {
      "mesh": 4,
      "name": "Object_6"
    }
  ],
  "samplers": [
    {
      "magFilter": 9729,
      "minFilter": 9987,
      "wrapS": 10497,
      "wrapT": 10497
    }
  ],
  "scene": 0,
  "scenes": [
    {
      "name": "Sketchfab_Scene",
      "nodes": [
        0
      ]
    }
  ],
  "textures": [
    {
      "sampler": 0,
      "source": 0
    },
    {
      "sampler": 0,
      "source": 1
    },
    {
      "sampler": 0,
      "source": 2
    },
    {
      "sampler": 0,
      "source": 3
    }
  ]
}
