{
  "accessors": [
    {
      "bufferView": 2,
      "componentType": 5126,
      "count": 1786,
      "max": [
        109.22244262695313,
        120.19297790527344,
        179.6705322265625
      ],
      "min": [
        -135.5730438232422,
        -109.26522827148438,
        -1.9294013977050781
      ],
      "type": "VEC3"
    },
    {
      "bufferView": 2,
      "byteOffset": 21432,
      "componentType": 5126,
      "count": 1786,
      "max": [
        0.9999598264694214,
        0.9997161030769348,
        1.0
      ],
      "min": [
        -0.9999957084655762,
        -0.9999932646751404,
        -0.9999999403953552
      ],
      "type": "VEC3"
    },
    {
      "bufferView": 1,
      "componentType": 5126,
      "count": 1786,
      "max": [
        0.9902754426002502,
        0.9878333806991577
      ],
      "min": [
        0.013192202895879745,
        0.009724479168653488
      ],
      "type": "VEC2"
    },
    {
      "bufferView": 1,
      "byteOffset": 14288,
      "componentType": 5126,
      "count": 1786,
      "max": [
        0.9902754426002502,
        60.11860656738281
      ],
      "min": [
        -178.05581665039063,
        -135.95751953125
      ],
      "type": "VEC2"
    },
    {
      "bufferView": 0,
      "componentType": 5125,
      "count": 3258,
      "type": "SCALAR"
    }
  ],
  "asset": {
    "extras": {
      "author": "admone (https://sketchfab.com/admone)",
      "license": "CC-BY-4.0 (http://creativecommons.org/licenses/by/4.0/)",
      "source": "https://sketchfab.com/3d-models/the-well-a76594bd1ecf49948161d5eb5b88cf81",
      "title": "The Well"
    },
    "generator": "Sketchfab-12.65.0",
    "version": "2.0"
  },
  "bufferViews": [
    {
      "buffer": 0,
      "byteLength": 13032,
      "name": "floatBufferViews",
      "target": 34963
    },
    {
      "buffer": 0,
      "byteLength": 28576,
      "byteOffset": 13032,
      "byteStride": 8,
      "name": "floatBufferViews",
      "target": 34962
    },
    {
      "buffer": 0,
      "byteLength": 42864,
      "byteOffset": 41608,
      "byteStride": 12,
      "name": "floatBufferViews",
      "target": 34962
    }
  ],
  "buffers": [
    {
      "byteLength": 84472,
      "uri": "scene.bin"
    }
  ],
  "images": [
    {
      "uri": "textures/24_-_Default_baseColor.jpeg"
    }
  ],
  "materials": [
    {
      "doubleSided": true,
      "name": "24_-_Default",
      "pbrMetallicRoughness": {
        "baseColorTexture": {
          "index": 0
        },
        "metallicFactor": 0.0
      }
    }
  ],
  "meshes": [
    {
      "name": "well_model_out_24 - Default_0",
      "primitives": [
        {
          "attributes": {
            "NORMAL": 1,
            "POSITION": 0,
            "TEXCOORD_0": 2,
            "TEXCOORD_1": 3
          },
          "indices": 4,
          "material": 0,
          "mode": 4
        }
      ]
    }
  ],
  "nodes": [
    {
      "children": [
        1
      ],
      "matrix": [
        1.0,
        0.0,
        0.0,
        0.0,
        0.0,
        2.220446049250313e-16,
        -1.0,
        0.0,
        0.0,
        1.0,
        2.220446049250313e-16,
        0.0,
        0.0,
        0.0,
        0.0,
        1.0
      ],
      "name": "Sketchfab_model"
    },
    {
      "children": [
        2
      ],
      "matrix": [
        1.0,
        0.0,
        0.0,
        0.0,
        0.0,
        0.0,
        1.0,
        0.0,
        0.0,
        -1.0,
        0.0,
        0.0,
        0.0,
        0.0,
        0.0,
        1.0
      ],
      "name": "well_model.FBX"
    },
    {
      "children": [
        3
      ],
      "name": "RootNode"
    },
    {
      "children": [
        4
      ],
      "matrix": [
        0.9953961984539031,
        6.938893903907228e-18,
        -0.09584575161955688,
        0.0,
        -0.09584575161955688,
        2.220446049250313e-16,
        -0.9953961984539031,
        0.0,
        6.938893903907228e-18,
        0.9999999999999999,
        2.220446049250313e-16,
        0.0,
        8.768417358398438,
        0.0,
        1.25628662109375,
        1.0
      ],
      "name": "well_model_out"
    },
    {
      "mesh": 0,
      "name": "well_model_out_24 - Default_0"
    }
  ],
  "samplers": [
    {
      "magFilter": 9729,
      "minFilter": 9987,
      "wrapS": 10497,
      "wrapT": 10497
    }
  ],
  "scene": 0,
  "scenes": [
    {
      "name": "Sketchfab_Scene",
      "nodes": [
        0
      ]
    }
  ],
  "textures": [
    {
      "sampler": 0,
      "source": 0
    }
  ]
}
